<svg width="218" height="60" viewBox="0 0 218 60" fill="none" xmlns="http://www.w3.org/2000/svg">
<path d="M81.11 43.24C80.55 43.24 80.12 43.08 79.82 42.76C79.52 42.44 79.37 42 79.37 41.44V23.41C79.37 22.83 79.53 22.39 79.85 22.09C80.17 21.77 80.61 21.61 81.17 21.61C81.67 21.61 82.06 21.71 82.34 21.91C82.64 22.09 82.91 22.41 83.15 22.87L90.56 36.58H89.6L97.01 22.87C97.25 22.41 97.51 22.09 97.79 21.91C98.07 21.71 98.46 21.61 98.96 21.61C99.52 21.61 99.95 21.77 100.25 22.09C100.55 22.39 100.7 22.83 100.7 23.41V41.44C100.7 42 100.55 42.44 100.25 42.76C99.97 43.08 99.54 43.24 98.96 43.24C98.4 43.24 97.97 43.08 97.67 42.76C97.37 42.44 97.22 42 97.22 41.44V27.55H97.88L91.58 39.04C91.38 39.38 91.17 39.63 90.95 39.79C90.73 39.95 90.43 40.03 90.05 40.03C89.67 40.03 89.36 39.95 89.12 39.79C88.88 39.61 88.67 39.36 88.49 39.04L82.13 27.52H82.85V41.44C82.85 42 82.7 42.44 82.4 42.76C82.12 43.08 81.69 43.24 81.11 43.24ZM111.085 43.3C109.565 43.3 108.245 42.99 107.125 42.37C106.005 41.75 105.135 40.87 104.515 39.73C103.895 38.57 103.585 37.21 103.585 35.65C103.585 34.47 103.755 33.42 104.095 32.5C104.455 31.56 104.965 30.76 105.625 30.1C106.285 29.42 107.075 28.91 107.995 28.57C108.915 28.21 109.945 28.03 111.085 28.03C112.605 28.03 113.925 28.34 115.045 28.96C116.165 29.58 117.035 30.46 117.655 31.6C118.275 32.74 118.585 34.09 118.585 35.65C118.585 36.83 118.405 37.89 118.045 38.83C117.705 39.77 117.205 40.58 116.545 41.26C115.885 41.92 115.095 42.43 114.175 42.79C113.255 43.13 112.225 43.3 111.085 43.3ZM111.085 40.45C111.825 40.45 112.475 40.27 113.035 39.91C113.595 39.55 114.025 39.02 114.325 38.32C114.645 37.6 114.805 36.71 114.805 35.65C114.805 34.05 114.465 32.86 113.785 32.08C113.105 31.28 112.205 30.88 111.085 30.88C110.345 30.88 109.695 31.06 109.135 31.42C108.575 31.76 108.135 32.29 107.815 33.01C107.515 33.71 107.365 34.59 107.365 35.65C107.365 37.23 107.705 38.43 108.385 39.25C109.065 40.05 109.965 40.45 111.085 40.45ZM126.727 43.24C126.227 43.24 125.787 43.11 125.407 42.85C125.047 42.59 124.747 42.19 124.507 41.65L119.737 30.58C119.557 30.14 119.487 29.73 119.527 29.35C119.587 28.97 119.767 28.67 120.067 28.45C120.387 28.21 120.817 28.09 121.357 28.09C121.817 28.09 122.187 28.2 122.467 28.42C122.747 28.62 122.997 29.01 123.217 29.59L127.267 39.7H126.367L130.537 29.56C130.757 29 131.007 28.62 131.287 28.42C131.587 28.2 131.987 28.09 132.487 28.09C132.927 28.09 133.277 28.21 133.537 28.45C133.797 28.67 133.957 28.97 134.017 29.35C134.077 29.71 134.007 30.11 133.807 30.55L128.947 41.65C128.727 42.19 128.427 42.59 128.047 42.85C127.687 43.11 127.247 43.24 126.727 43.24ZM142.944 43.3C141.284 43.3 139.854 42.99 138.654 42.37C137.454 41.75 136.524 40.87 135.864 39.73C135.224 38.59 134.904 37.24 134.904 35.68C134.904 34.16 135.214 32.83 135.834 31.69C136.474 30.55 137.344 29.66 138.444 29.02C139.564 28.36 140.834 28.03 142.254 28.03C143.294 28.03 144.224 28.2 145.044 28.54C145.884 28.88 146.594 29.37 147.174 30.01C147.774 30.65 148.224 31.43 148.524 32.35C148.844 33.25 149.004 34.27 149.004 35.41C149.004 35.77 148.874 36.05 148.614 36.25C148.374 36.43 148.024 36.52 147.564 36.52H137.934V34.36H146.364L145.884 34.81C145.884 33.89 145.744 33.12 145.464 32.5C145.204 31.88 144.814 31.41 144.294 31.09C143.794 30.75 143.164 30.58 142.404 30.58C141.564 30.58 140.844 30.78 140.244 31.18C139.664 31.56 139.214 32.11 138.894 32.83C138.594 33.53 138.444 34.37 138.444 35.35V35.56C138.444 37.2 138.824 38.43 139.584 39.25C140.364 40.05 141.504 40.45 143.004 40.45C143.524 40.45 144.104 40.39 144.744 40.27C145.404 40.13 146.024 39.9 146.604 39.58C147.024 39.34 147.394 39.24 147.714 39.28C148.034 39.3 148.284 39.41 148.464 39.61C148.664 39.81 148.784 40.06 148.824 40.36C148.864 40.64 148.804 40.93 148.644 41.23C148.504 41.53 148.254 41.79 147.894 42.01C147.194 42.45 146.384 42.78 145.464 43C144.564 43.2 143.724 43.3 142.944 43.3ZM153.714 43.24C153.094 43.24 152.604 43.07 152.244 42.73C151.904 42.37 151.734 41.86 151.734 41.2V23.89C151.734 23.23 151.904 22.73 152.244 22.39C152.604 22.03 153.114 21.85 153.774 21.85H164.244C164.764 21.85 165.154 21.98 165.414 22.24C165.674 22.5 165.804 22.87 165.804 23.35C165.804 23.85 165.674 24.24 165.414 24.52C165.154 24.78 164.764 24.91 164.244 24.91H155.574V30.88H163.614C164.114 30.88 164.494 31.01 164.754 31.27C165.034 31.53 165.174 31.9 165.174 32.38C165.174 32.88 165.034 33.27 164.754 33.55C164.494 33.81 164.114 33.94 163.614 33.94H155.574V41.2C155.574 42.56 154.954 43.24 153.714 43.24ZM173.831 43.3C172.171 43.3 170.921 42.83 170.081 41.89C169.241 40.93 168.821 39.53 168.821 37.69V23.5C168.821 22.88 168.981 22.41 169.301 22.09C169.621 21.77 170.081 21.61 170.681 21.61C171.281 21.61 171.741 21.77 172.061 22.09C172.401 22.41 172.571 22.88 172.571 23.5V37.51C172.571 38.43 172.761 39.11 173.141 39.55C173.541 39.99 174.101 40.21 174.821 40.21C174.981 40.21 175.131 40.21 175.271 40.21C175.411 40.19 175.551 40.17 175.691 40.15C175.971 40.11 176.161 40.19 176.261 40.39C176.361 40.57 176.411 40.95 176.411 41.53C176.411 42.03 176.311 42.42 176.111 42.7C175.911 42.98 175.581 43.15 175.121 43.21C174.921 43.23 174.711 43.25 174.491 43.27C174.271 43.29 174.051 43.3 173.831 43.3ZM184.345 43.3C182.825 43.3 181.505 42.99 180.385 42.37C179.265 41.75 178.395 40.87 177.775 39.73C177.155 38.57 176.845 37.21 176.845 35.65C176.845 34.47 177.015 33.42 177.355 32.5C177.715 31.56 178.225 30.76 178.885 30.1C179.545 29.42 180.335 28.91 181.255 28.57C182.175 28.21 183.205 28.03 184.345 28.03C185.865 28.03 187.185 28.34 188.305 28.96C189.425 29.58 190.295 30.46 190.915 31.6C191.535 32.74 191.845 34.09 191.845 35.65C191.845 36.83 191.665 37.89 191.305 38.83C190.965 39.77 190.465 40.58 189.805 41.26C189.145 41.92 188.355 42.43 187.435 42.79C186.515 43.13 185.485 43.3 184.345 43.3ZM184.345 40.45C185.085 40.45 185.735 40.27 186.295 39.91C186.855 39.55 187.285 39.02 187.585 38.32C187.905 37.6 188.065 36.71 188.065 35.65C188.065 34.05 187.725 32.86 187.045 32.08C186.365 31.28 185.465 30.88 184.345 30.88C183.605 30.88 182.955 31.06 182.395 31.42C181.835 31.76 181.395 32.29 181.075 33.01C180.775 33.71 180.625 34.59 180.625 35.65C180.625 37.23 180.965 38.43 181.645 39.25C182.325 40.05 183.225 40.45 184.345 40.45ZM199.717 43.24C199.217 43.24 198.787 43.12 198.427 42.88C198.067 42.62 197.777 42.22 197.557 41.68L193.207 30.58C193.027 30.1 192.967 29.68 193.027 29.32C193.107 28.94 193.297 28.64 193.597 28.42C193.897 28.2 194.297 28.09 194.797 28.09C195.237 28.09 195.597 28.2 195.877 28.42C196.157 28.62 196.397 29.01 196.597 29.59L200.227 39.58H199.537L203.287 29.35C203.447 28.91 203.657 28.59 203.917 28.39C204.197 28.19 204.557 28.09 204.997 28.09C205.437 28.09 205.797 28.2 206.077 28.42C206.357 28.62 206.567 28.93 206.707 29.35L210.397 39.58H209.767L213.427 29.5C213.627 28.96 213.877 28.59 214.177 28.39C214.497 28.19 214.847 28.09 215.227 28.09C215.707 28.09 216.077 28.21 216.337 28.45C216.597 28.69 216.747 29 216.787 29.38C216.827 29.74 216.757 30.14 216.577 30.58L212.257 41.68C212.057 42.2 211.767 42.59 211.387 42.85C211.027 43.11 210.597 43.24 210.097 43.24C209.597 43.24 209.157 43.11 208.777 42.85C208.417 42.59 208.137 42.2 207.937 41.68L204.007 31.27H205.717L201.877 41.65C201.677 42.19 201.397 42.59 201.037 42.85C200.677 43.11 200.237 43.24 199.717 43.24Z" fill="url(#paint0_linear_1_4182)"/>
<g clip-path="url(#clip0_1_4182)">
<mask id="mask0_1_4182" style="mask-type:luminance" maskUnits="userSpaceOnUse" x="0" y="0" width="60" height="60">
<path d="M60 0H0V60H60V0Z" fill="white"/>
</mask>
<g mask="url(#mask0_1_4182)">
<path d="M29.4749 21.1285L20.5713 30.0429L30.1391 39.6107L39.0535 30.7071L29.4749 21.1285Z" stroke="#F143E2" stroke-width="8.03571" stroke-miterlimit="10"/>
<mask id="mask1_1_4182" style="mask-type:luminance" maskUnits="userSpaceOnUse" x="37" y="0" width="23" height="60">
<path d="M37.714 47.1428L50.5712 60H59.9998V0H50.6034L37.0498 13.5536L49.6498 26.1536C50.2476 26.7506 50.7216 27.4596 51.0452 28.24C51.3686 29.0204 51.5352 29.857 51.5352 30.7018C51.5352 31.5466 51.3686 32.3832 51.0452 33.1636C50.7216 33.944 50.2476 34.653 49.6498 35.25L49.3712 35.5286L46.6284 38.2822L37.714 47.1428Z" fill="white"/>
</mask>
<g mask="url(#mask1_1_4182)">
<path d="M37.5636 0L24.8994 12.6643V12L36.8994 0H37.5636Z" fill="#BC36C4"/>
<path d="M38.2386 0L24.8994 13.3393V12.6643L37.5636 0H38.2386Z" fill="#BB36C4"/>
<path d="M38.903 0L24.8994 14.0036V13.3393L38.2386 0H38.903Z" fill="#BA36C3"/>
<path d="M39.578 0L24.8994 14.6786V14.0036L38.903 0H39.578Z" fill="#B935C2"/>
<path d="M40.2422 0L24.8994 15.3429V14.6786L39.578 0H40.2422Z" fill="#B835C2"/>
<path d="M40.9172 0L24.8994 16.0179V15.3429L40.2422 0H40.9172Z" fill="#B735C1"/>
<path d="M41.5816 0L24.8994 16.6821V16.0179L40.9172 0H41.5816Z" fill="#B635C1"/>
<path d="M42.2566 0L24.8994 17.3571V16.6821L41.5816 0H42.2566Z" fill="#B534C0"/>
<path d="M42.9208 0L24.8994 18.0214V17.3571L42.2566 0H42.9208Z" fill="#B434C0"/>
<path d="M43.5958 0L24.8994 18.6964V18.0214L42.9208 0H43.5958Z" fill="#B334BF"/>
<path d="M44.2708 0L24.8994 19.3714V18.6964L43.5958 0H44.2708Z" fill="#B234BF"/>
<path d="M44.9352 0L24.8994 20.0358V19.3714L44.2708 0H44.9352Z" fill="#B133BE"/>
<path d="M45.6102 0L24.8994 20.7108V20.0358L44.9352 0H45.6102Z" fill="#B033BD"/>
<path d="M46.2744 0L24.8994 21.375V20.7108L45.6102 0H46.2744Z" fill="#AF33BD"/>
<path d="M46.9494 0L24.8994 22.05V21.375L46.2744 0H46.9494Z" fill="#AE33BC"/>
<path d="M47.6136 0L24.8994 22.7142V22.05L46.9494 0H47.6136Z" fill="#AD32BC"/>
<path d="M48.2886 0L24.8994 23.3892V22.7142L47.6136 0H48.2886Z" fill="#AC32BB"/>
<path d="M48.953 0L24.8994 24.0536V23.3892L48.2886 0H48.953Z" fill="#AB32BB"/>
<path d="M49.628 0L24.8994 24.7286V24.0536L48.953 0H49.628Z" fill="#AA32BA"/>
<path d="M50.303 0L24.8994 25.3928V24.7286L49.628 0H50.303Z" fill="#A931B9"/>
<path d="M50.9672 0L24.8994 26.0678V25.3928L50.303 0H50.9672Z" fill="#A831B9"/>
<path d="M51.6422 0L24.8994 26.7428V26.0678L50.9672 0H51.6422Z" fill="#A731B8"/>
<path d="M52.3066 0L24.8994 27.4072V26.7428L51.6422 0H52.3066Z" fill="#A631B8"/>
<path d="M52.9816 0L24.8994 28.0822V27.4072L52.3066 0H52.9816Z" fill="#A530B7"/>
<path d="M53.6458 0L24.8994 28.7464V28.0822L52.9816 0H53.6458Z" fill="#A430B7"/>
<path d="M54.3208 0L24.8994 29.4214V28.7464L53.6458 0H54.3208Z" fill="#A330B6"/>
<path d="M54.9852 0L24.8994 30.0858V29.4214L54.3208 0H54.9852Z" fill="#A230B6"/>
<path d="M55.6602 0L24.8994 30.7608V30.0858L54.9852 0H55.6602Z" fill="#A12FB5"/>
<path d="M56.3352 0L24.8994 31.4358V30.7608L55.6602 0H56.3352Z" fill="#A02FB4"/>
<path d="M56.9994 0L24.8994 32.1V31.4358L56.3352 0H56.9994Z" fill="#9F2FB4"/>
<path d="M57.6744 0L24.8994 32.775V32.1L56.9994 0H57.6744Z" fill="#9E2FB3"/>
<path d="M58.3386 0L24.8994 33.4392V32.775L57.6744 0H58.3386Z" fill="#9D2EB3"/>
<path d="M59.0136 0L24.8994 34.1142V33.4392L58.3386 0H59.0136Z" fill="#9C2EB2"/>
<path d="M59.678 0L24.8994 34.7786V34.1142L59.0136 0H59.678Z" fill="#9B2EB2"/>
<path d="M59.9994 0.353572L24.8994 35.4536V34.7786L59.678 0H59.9994V0.353572Z" fill="#9A2EB1"/>
<path d="M59.9994 1.01792L24.8994 36.1178V35.4536L59.9994 0.353638V1.01792Z" fill="#982DB0"/>
<path d="M59.9994 1.69282L24.8994 36.7928V36.1178L59.9994 1.01782V1.69282Z" fill="#972DB0"/>
<path d="M59.9994 2.36788L24.8994 37.4678V36.7928L59.9994 1.69287V2.36788Z" fill="#962DAF"/>
<path d="M59.9994 3.0322L24.8994 38.1322V37.4678L59.9994 2.36792V3.0322Z" fill="#952DAF"/>
<path d="M59.9994 3.7071L24.8994 38.8072V38.1322L59.9994 3.0321V3.7071Z" fill="#942DAE"/>
<path d="M59.9994 4.37145L24.8994 39.4714V38.8072L59.9994 3.70715V4.37145Z" fill="#932CAE"/>
<path d="M59.9994 5.04634L24.8994 40.1464V39.4714L59.9994 4.37134V5.04634Z" fill="#922CAD"/>
<path d="M59.9994 5.71069L24.8994 40.8106V40.1464L59.9994 5.04639V5.71069Z" fill="#912CAD"/>
<path d="M59.9994 6.38569L24.8994 41.4858V40.8108L59.9994 5.71069V6.38569Z" fill="#902CAC"/>
<path d="M59.9994 7.05002L24.8994 42.15V41.4858L59.9994 6.38574V7.05002Z" fill="#8F2BAB"/>
<path d="M59.9994 7.72505L24.8994 42.8251V42.1501L59.9994 7.05005V7.72505Z" fill="#8E2BAB"/>
<path d="M59.9994 8.38926L24.8994 43.4892V42.825L59.9994 7.72498V8.38926Z" fill="#8D2BAA"/>
<path d="M59.9994 9.06428L24.8994 44.1642V43.4892L59.9994 8.38928V9.06428Z" fill="#8C2BAA"/>
<path d="M59.9994 9.73921L24.8994 44.8391V44.1642L59.9994 9.06421V9.73921Z" fill="#8B2AA9"/>
<path d="M59.9994 10.4035L24.8994 45.5036V44.8392L59.9994 9.73926V10.4035Z" fill="#8A2AA9"/>
<path d="M59.9994 11.0786L24.8994 46.1785V45.5035L59.9994 10.4036V11.0786Z" fill="#892AA8"/>
<path d="M59.9994 11.7429L24.8994 46.8428V46.1786L59.9994 11.0786V11.7429Z" fill="#882AA7"/>
<path d="M59.9994 12.4179L24.8994 47.5178V46.8428L59.9994 11.7429V12.4179Z" fill="#8729A7"/>
<path d="M59.9994 13.0821L24.8994 48.1822V47.5178L59.9994 12.4178V13.0821Z" fill="#8629A6"/>
<path d="M59.9994 13.7572L24.8994 48.8572V48.1822L59.9994 13.0822V13.7572Z" fill="#8529A6"/>
<path d="M59.9994 14.4214L24.8994 49.5214V48.8572L59.9994 13.7571V14.4214Z" fill="#8429A5"/>
<path d="M59.9994 15.0964L24.8994 50.1964V49.5214L59.9994 14.4214V15.0964Z" fill="#8328A5"/>
<path d="M59.9994 15.7607L24.8994 50.8715V50.1965L59.9994 15.0964V15.7607Z" fill="#8228A4"/>
<path d="M59.9994 16.4357L24.8994 51.5358V50.8714L59.9994 15.7607V16.4357Z" fill="#8128A4"/>
<path d="M59.9994 17.1108L24.8994 52.2108V51.5358L59.9994 16.4358V17.1108Z" fill="#8028A3"/>
<path d="M59.9994 17.775L24.8994 52.875V52.2108L59.9994 17.1107V17.775Z" fill="#7F27A2"/>
<path d="M59.9994 18.45L24.8994 53.55V52.875L59.9994 17.775V18.45Z" fill="#7E27A2"/>
<path d="M59.9994 19.1142L24.8994 54.2142V53.55L59.9994 18.45V19.1142Z" fill="#7D27A1"/>
<path d="M59.9994 19.7893L24.8994 54.8892V54.2142L59.9994 19.1143V19.7893Z" fill="#7C27A1"/>
<path d="M59.9994 20.4536L24.8994 55.5536V54.8892L59.9994 19.7893V20.4536Z" fill="#7B26A0"/>
<path d="M59.9994 21.1286L24.8994 56.2286V55.5536L59.9994 20.4536V21.1286Z" fill="#7A26A0"/>
<path d="M59.9994 21.7927L24.8994 56.8927V56.2285L59.9994 21.1285V21.7927Z" fill="#79269F"/>
<path d="M59.9994 22.4678L24.8994 57.5678V56.8928L59.9994 21.7928V22.4678Z" fill="#78269E"/>
<path d="M59.9994 23.1428L24.8994 58.2428V57.5678L59.9994 22.4678V23.1428Z" fill="#77259E"/>
<path d="M59.9994 23.8072L24.8994 58.9072V58.2428L59.9994 23.1428V23.8072Z" fill="#76259D"/>
<path d="M59.9994 24.4823L24.8994 59.5823V58.9073L59.9994 23.8073V24.4823Z" fill="#75259D"/>
<path d="M59.9994 25.1464L25.1458 60H24.8994V59.5822L59.9994 24.4822V25.1464Z" fill="#74259C"/>
<path d="M59.9996 25.8214L25.821 60H25.146L59.9996 25.1464V25.8214Z" fill="#73249C"/>
<path d="M59.9994 26.4856L26.485 60H25.8208L59.9994 25.8214V26.4856Z" fill="#72249B"/>
<path d="M59.9995 27.1608L27.1604 60H26.4854L59.9995 26.4858V27.1608Z" fill="#71249B"/>
<path d="M59.9994 27.8358L27.8352 60H27.1602L59.9994 27.1608V27.8358Z" fill="#70249A"/>
<path d="M59.9999 28.5L28.4999 60H27.8354L59.9999 27.8358V28.5Z" fill="#6F2399"/>
<path d="M59.9995 29.175L29.1745 60H28.4995L59.9995 28.5V29.175Z" fill="#6E2399"/>
<path d="M59.9998 29.8392L29.8392 60H29.1748L59.9998 29.175V29.8392Z" fill="#6D2398"/>
<path d="M59.9992 30.5142L30.5134 60H29.8384L59.9992 29.8392V30.5142Z" fill="#6C2398"/>
<path d="M59.9998 31.1786L31.1784 60H30.5142L59.9998 30.5142V31.1786Z" fill="#6B2397"/>
<path d="M59.9996 31.8536L31.8532 60H31.1782L59.9996 31.1786V31.8536Z" fill="#6A2297"/>
<path d="M59.9999 32.5178L32.5177 60H31.8535L59.9999 31.8536V32.5178Z" fill="#692296"/>
<path d="M59.9993 33.1928L33.1921 60H32.5171L59.9993 32.5178V33.1928Z" fill="#682295"/>
<path d="M60.0001 33.8677L33.8679 59.9999H33.1929L60.0001 33.1927V33.8677Z" fill="#672295"/>
<path d="M59.9999 34.532L34.5321 59.9998H33.8677L59.9999 33.8676V34.532Z" fill="#662194"/>
<path d="M60 35.2072L35.2072 60H34.5322L60 34.5322V35.2072Z" fill="#652194"/>
<path d="M59.9998 35.8714L35.8712 59.9998H35.207L59.9998 35.207V35.8714Z" fill="#642193"/>
<path d="M60.0002 36.5463L36.5466 59.9999H35.8716L60.0002 35.8713V36.5463Z" fill="#632193"/>
<path d="M60 37.2105L37.2106 59.9997H36.5464L60 36.5461V37.2105Z" fill="#622092"/>
<path d="M59.9999 37.8858L37.8854 60H37.2104L59.9999 37.2108V37.8858Z" fill="#612092"/>
<path d="M59.9999 38.5498L38.5499 59.9998H37.8857L59.9999 37.8856V38.5498Z" fill="#602091"/>
<path d="M59.9998 39.225L39.2248 60H38.5498L59.9998 38.55V39.225Z" fill="#5F2090"/>
<path d="M59.9996 39.8891L39.8888 59.9999H39.2246L59.9996 39.2249V39.8891Z" fill="#5E1F90"/>
<path d="M60 40.5642L40.5642 60H39.8892L60 39.8892V40.5642Z" fill="#5D1F8F"/>
<path d="M59.9998 41.2284L41.2284 59.9998H40.564L59.9998 40.5642V41.2284Z" fill="#5C1F8F"/>
<path d="M59.9999 41.9036L41.9035 60H41.2285L59.9999 41.2286V41.9036Z" fill="#5B1F8E"/>
<path d="M59.9997 42.5784L42.5783 59.9998H41.9033L59.9997 41.9034V42.5784Z" fill="#5A1E8E"/>
<path d="M59.9995 43.2428L43.2425 60H42.5781L59.9995 42.5786V43.2428Z" fill="#591E8D"/>
<path d="M59.9999 43.9176L43.9177 59.9998H43.2427L59.9999 43.2426V43.9176Z" fill="#581E8C"/>
<path d="M59.9992 44.5822L44.5814 60H43.917L59.9992 43.9178V44.5822Z" fill="#571E8C"/>
<path d="M59.9998 45.257L45.257 59.9998H44.582L59.9998 44.582V45.257Z" fill="#561D8B"/>
<path d="M59.9996 45.9214L45.921 60H45.2568L59.9996 45.2572V45.9214Z" fill="#551D8B"/>
<path d="M60 46.5961L46.5964 59.9997H45.9214L60 45.9211V46.5961Z" fill="#541D8A"/>
<path d="M59.9998 47.2714L47.2712 60H46.5962L59.9998 46.5964V47.2714Z" fill="#531D8A"/>
<path d="M59.9996 47.9356L47.9352 60H47.271L59.9996 47.2714V47.9356Z" fill="#521C89"/>
<path d="M59.9993 48.6108L48.6101 60H47.9351L59.9993 47.9358V48.6108Z" fill="#511C89"/>
<path d="M59.9996 49.275L49.2746 60H48.6104L59.9996 48.6108V49.275Z" fill="#501C88"/>
<path d="M59.9994 49.95L49.9494 60H49.2744L59.9994 49.275V49.95Z" fill="#4F1C87"/>
<path d="M59.9992 50.6142L50.6134 60H49.9492L59.9992 49.95V50.6142Z" fill="#4E1B87"/>
<path d="M59.9994 51.2893L51.2888 60.0001H50.6138L59.9994 50.6143V51.2893Z" fill="#4D1B86"/>
<path d="M59.9999 51.9536L51.9535 60H51.2891L59.9999 51.2892V51.9536Z" fill="#4C1B86"/>
<path d="M59.9995 52.6286L52.6281 60H51.9531L59.9995 51.9536V52.6286Z" fill="#4B1B85"/>
<path d="M59.9993 53.2929L53.2923 59.9999H52.6279L59.9993 52.6285V53.2929Z" fill="#4A1A85"/>
<path d="M59.9992 53.9678L53.967 60H53.292L59.9992 53.2928V53.9678Z" fill="#491A84"/>
<path d="M59.9995 54.6428L54.6423 60H53.9673L59.9995 53.9678V54.6428Z" fill="#481A83"/>
<path d="M59.9993 55.3072L55.3065 60H54.6421L59.9993 54.6428V55.3072Z" fill="#471A83"/>
<path d="M59.9994 55.9823L55.9816 60H55.3066L59.9994 55.3073V55.9823Z" fill="#461982"/>
<path d="M59.9992 56.6464L56.6458 60H55.9814L59.9992 55.9822V56.6464Z" fill="#451982"/>
<path d="M59.9996 57.3214L57.321 60H56.646L59.9996 56.6464V57.3214Z" fill="#441981"/>
<path d="M59.9994 57.9856L57.9852 60H57.3208L59.9994 57.3214V57.9856Z" fill="#431981"/>
<path d="M59.9995 58.6608L58.6604 60H57.9854L59.9995 57.9858V58.6608Z" fill="#421880"/>
<path d="M59.9994 59.325L59.3244 60H58.6602L59.9994 58.6608V59.325Z" fill="#411880"/>
<path d="M59.9992 60H59.3242L59.9992 59.325V60Z" fill="#40187F"/>
</g>
<mask id="mask2_1_4182" style="mask-type:luminance" maskUnits="userSpaceOnUse" x="0" y="0" width="23" height="60">
<path d="M9.96428 34.5858C8.76042 33.3804 8.08422 31.7464 8.08422 30.0428C8.08422 28.3392 8.76042 26.7054 9.96428 25.5L12.9964 22.5L21.9 13.5857L8.34642 0H0V60H9.75L22.6072 47.1428L9.96428 34.5858Z" fill="white"/>
</mask>
<g mask="url(#mask2_1_4182)">
<path d="M8.34642 0L15.225 6.87858L0 22.0072V0H8.34642Z" fill="#F143E2"/>
<path d="M16.6929 5.31421L17.1214 5.74277L0 22.8641V22.0072L16.6929 5.31421Z" fill="#F143E2"/>
<path d="M17.1214 5.74292L17.55 6.17148L0 23.7322V22.8642L17.1214 5.74292Z" fill="#F043E1"/>
<path d="M17.55 6.17139L17.9893 6.61069L0 24.5892V23.7322L17.55 6.17139Z" fill="#EF43E1"/>
<path d="M17.9893 6.61072L18.4179 7.0393L0 25.4572V24.5894L17.9893 6.61072Z" fill="#EE43E0"/>
<path d="M18.4179 7.03931L18.8464 7.46787L0 26.3142V25.4572L18.4179 7.03931Z" fill="#ED42DF"/>
<path d="M18.8464 7.4679L19.275 7.89646L0 27.1714V26.3144L18.8464 7.4679Z" fill="#EC42DE"/>
<path d="M19.275 7.89636L19.7036 8.33566L0 28.0392V27.1714L19.275 7.89636Z" fill="#EB42DE"/>
<path d="M19.7036 8.33569L20.1428 8.76427L0 28.8964V28.0394L19.7036 8.33569Z" fill="#EA42DD"/>
<path d="M20.1428 8.76428L20.5714 9.19284L0 29.7642V28.8964L20.1428 8.76428Z" fill="#E942DC"/>
<path d="M20.5714 9.19287L21 9.62143L0 30.6214V29.7644L20.5714 9.19287Z" fill="#E842DB"/>
<path d="M21 9.62134L21.4286 10.0499L0 31.4892V30.6214L21 9.62134Z" fill="#E741DB"/>
<path d="M21.4286 10.05L21.8678 10.4893L0 32.3464V31.4892L21.4286 10.05Z" fill="#E641DA"/>
<path d="M21.8678 10.4893L22.2964 10.9178L0 33.2142V32.3464L21.8678 10.4893Z" fill="#E541D9"/>
<path d="M22.2964 10.9178L22.5642 11.1857V11.5071L0 34.0714V33.2144L22.2964 10.9178Z" fill="#E441D8"/>
<path d="M22.5642 12.3749L0 34.9392V34.0714L22.5642 11.5071V12.3749Z" fill="#E341D8"/>
<path d="M22.5642 13.2321L0 35.7964V34.9392L22.5642 12.375V13.2321Z" fill="#E241D7"/>
<path d="M22.5642 14.1L0 36.6643V35.7965L22.5642 13.2322V14.1Z" fill="#E140D6"/>
<path d="M22.5642 14.9571L0 37.5214V36.6642L22.5642 14.1V14.9571Z" fill="#E040D5"/>
<path d="M22.5642 15.825L0 38.3892V37.5214L22.5642 14.9572V15.825Z" fill="#DF40D5"/>
<path d="M22.5642 16.6821L0 39.2464V38.3892L22.5642 15.825V16.6821Z" fill="#DE40D4"/>
<path d="M22.5642 17.5393L0 40.1036V39.2464L22.5642 16.6821V17.5393Z" fill="#DD40D3"/>
<path d="M22.5642 18.4072L0 40.9714V40.1036L22.5642 17.5393V18.4072Z" fill="#DC40D3"/>
<path d="M22.5642 19.2643L0 41.8286V40.9714L22.5642 18.4071V19.2643Z" fill="#DB40D2"/>
<path d="M22.5642 20.1322L0 42.6964V41.8286L22.5642 19.2643V20.1322Z" fill="#DA3FD1"/>
<path d="M22.5642 20.9892L0 43.5536V42.6964L22.5642 20.1322V20.9892Z" fill="#D93FD0"/>
<path d="M22.5642 21.8573L0 44.4215V43.5537L22.5642 20.9893V21.8573Z" fill="#D83FD0"/>
<path d="M22.5642 22.7142L0 45.2786V44.4214L22.5642 21.8572V22.7142Z" fill="#D73FCF"/>
<path d="M22.5642 23.5822L0 46.1464V45.2786L22.5642 22.7142V23.5822Z" fill="#D63FCE"/>
<path d="M22.5642 24.4392L0 47.0036V46.1464L22.5642 23.5822V24.4392Z" fill="#D53FCD"/>
<path d="M22.5642 25.2964L0 47.8606V47.0036L22.5642 24.4392V25.2964Z" fill="#D43ECD"/>
<path d="M22.5642 26.1642L0 48.7286V47.8606L22.5642 25.2964V26.1642Z" fill="#D33ECC"/>
<path d="M22.5642 27.0214L0 49.5856V48.7286L22.5642 26.1642V27.0214Z" fill="#D23ECB"/>
<path d="M22.5642 27.8892L0 50.4536V49.5856L22.5642 27.0214V27.8892Z" fill="#D13ECA"/>
<path d="M22.5642 28.7464L0 51.3106V50.4536L22.5642 27.8892V28.7464Z" fill="#D03ECA"/>
<path d="M22.5642 29.6141L0 52.1785V51.3105L22.5642 28.7463V29.6141Z" fill="#CF3EC9"/>
<path d="M22.5642 30.4715L0 53.0357V52.1787L22.5642 29.6143V30.4715Z" fill="#CE3DC8"/>
<path d="M22.5642 31.3392L0 53.9036V53.0356L22.5642 30.4714V31.3392Z" fill="#CD3DC7"/>
<path d="M22.5642 32.1964L0 54.7606V53.9036L22.5642 31.3392V32.1964Z" fill="#CC3DC7"/>
<path d="M22.5642 33.0642L0 55.6286V54.7606L22.5642 32.1964V33.0642Z" fill="#CB3DC6"/>
<path d="M22.5642 33.9214L0 56.4856V55.6286L22.5642 33.0642V33.9214Z" fill="#CA3DC5"/>
<path d="M22.5642 34.7892L0 57.3428V56.4856L22.5642 33.9214V34.7892Z" fill="#C93DC5"/>
<path d="M22.5642 35.6464L0 58.2106V57.3428L22.5642 34.7892V35.6464Z" fill="#C83DC4"/>
<path d="M22.5642 36.5142L0 59.0678V58.2106L22.5642 35.6464V36.5142Z" fill="#C73CC3"/>
<path d="M22.5642 37.3714L0 59.9356V59.0678L22.5642 36.5142V37.3714Z" fill="#C63CC2"/>
<path d="M22.5642 38.2285L0.792858 59.9999H0V59.9355L22.5642 37.3713V38.2285Z" fill="#C53CC2"/>
<path d="M22.5643 39.0964L1.66082 60H0.792969L22.5643 38.2286V39.0964Z" fill="#C43CC1"/>
<path d="M22.5643 39.9536L2.51778 60H1.66064L22.5643 39.0964V39.9536Z" fill="#C33CC0"/>
<path d="M22.5644 40.8214L3.38591 60H2.51807L22.5644 39.9536V40.8214Z" fill="#C23CBF"/>
<path d="M22.5644 41.6786L4.24288 60H3.38574L22.5644 40.8214V41.6786Z" fill="#C13BBF"/>
<path d="M22.564 42.5464L5.11052 60H4.24268L22.564 41.6786V42.5464Z" fill="#C03BBE"/>
<path d="M22.5645 43.4036L5.96798 60H5.11084L22.5645 42.5464V43.4036Z" fill="#BF3BBD"/>
<path d="M22.5641 44.2714L6.83561 60H5.96777L22.5641 43.4036V44.2714Z" fill="#BE3BBC"/>
<path d="M22.5646 45.1286L7.69308 60H6.83594L22.5646 44.2714V45.1286Z" fill="#BD3BBC"/>
<path d="M22.5642 45.9857L8.56071 59.9999H7.69287L22.5642 45.1285V45.9857Z" fill="#BC3BBB"/>
<path d="M22.5642 46.8536L9.41769 60H8.56055L22.5642 45.9858V46.8536Z" fill="#BB3ABA"/>
<path d="M22.4787 47.1857L9.66439 59.9999H9.41797L22.3501 47.0677L22.4787 47.1857Z" fill="#BA3AB9"/>
</g>
<path d="M37.5964 47.2178L46.5428 38.2822L49.2858 35.5286L49.5642 35.25C50.162 34.653 50.6362 33.944 50.9596 33.1636C51.2832 32.3832 51.4496 31.5466 51.4496 30.7018C51.4496 29.857 51.2832 29.0204 50.9596 28.24C50.6362 27.4596 50.162 26.7506 49.5642 26.1536L36.9642 13.5536L50.5178 0H35.3572L21.8142 13.5536L12.9107 22.5L9.86785 25.5C8.66397 26.7054 7.98779 28.3392 7.98779 30.0428C7.98779 31.7464 8.66397 33.3804 9.86785 34.5858L22.5 47.1428L9.64285 60H24.8142L37.5964 47.2178ZM20.4536 30.075L29.3572 21.1608L38.9358 30.7392L30.0536 39.6428L20.4536 30.075Z" fill="white"/>
<path d="M22.8536 47.6036C22.9524 47.5016 23.0076 47.3652 23.0076 47.2232C23.0076 47.0812 22.9524 46.9448 22.8536 46.8428C22.8108 46.7786 17.1429 40.7142 11.5179 35.3572C9.54642 33.4714 8.57142 31.5536 8.57142 29.6678C8.62172 28.1532 9.25054 26.7152 10.3286 25.65L35.3572 0H33.8572L9.64286 24.8572C8.3415 26.1158 7.57422 27.8268 7.5 29.6358C7.5 31.8428 8.57142 34.0286 10.7679 36.1392C15.525 40.7036 20.4108 45.7822 21.7178 47.1964L8.79642 60H10.3286L22.8536 47.6036Z" fill="#F143E2"/>
<path d="M36.4284 12.8571C36.3782 12.9069 36.3382 12.9662 36.311 13.0315C36.2838 13.0968 36.2698 13.1668 36.2698 13.2375C36.2698 13.3082 36.2838 13.3782 36.311 13.4435C36.3382 13.5088 36.3782 13.5681 36.4284 13.6179C36.482 13.6821 42.4176 19.7786 48.0104 25.1358C50.0462 27.0964 51.0534 29.025 50.9998 30.8678C50.9408 32.1996 50.3596 33.4546 49.382 34.3608L24.439 60H25.939L50.1212 35.1536C50.7156 34.6048 51.195 33.9432 51.5316 33.2074C51.8682 32.4718 52.0552 31.6764 52.082 30.8678C52.157 28.725 51.0104 26.4964 48.7498 24.3108C43.982 19.7357 38.957 14.6679 37.5748 13.2L50.6462 0H49.1248L36.4284 12.8571Z" fill="#F143E2"/>
</g>
</g>
<defs>
<linearGradient id="paint0_linear_1_4182" x1="114" y1="34" x2="307.5" y2="33.9201" gradientUnits="userSpaceOnUse">
<stop stop-color="#B448C3"/>
<stop offset="1" stop-color="#42217E"/>
</linearGradient>
<clipPath id="clip0_1_4182">
<rect width="60" height="60" fill="white"/>
</clipPath>
</defs>
</svg>
